<svg width="900" height="1262" xmlns="http://www.w3.org/2000/svg">
    <style>
        text {
            font-family: 'Consolas', 'Monaco', 'Courier New', monospace;
            font-size: 16px;
        }
        .ascii {
            fill: #839496;
            font-size: 14px;
            white-space: pre;
        }
        .key {
            fill: #cb4b16;
            font-weight: 600;
        }
        .value {
            fill: #268bd2;
        }
        .comment {
            fill: #586e75;
        }
        .header {
            fill: #839496;
            font-weight: 700;
            font-size: 18px;
        }
        .footer {
            fill: #586e75;
            font-size: 12px;
        }
    </style>

    <!-- Background -->
    <rect width="900" height="1262" fill="#002b36" rx="10"/>
    <rect width="880" height="1242" x="10" y="10" fill="#002b36" stroke="#586e75" stroke-width="2" rx="8"/>

    <!-- Title -->
    <text x="50" y="60" class="header">kholcomb's GitHub Profile</text>

    <!-- Info Section -->
    <g>
        <text x="50" y="100" class="comment"></text>
        <text x="50" y="124" class="comment">──────────────────────────────────────────────────</text>
        <text x="50" y="148" class="key">Name:</text>
        <text x="250" y="148" class="value">kholcomb</text>
        <text x="50" y="172" class="key">Role:</text>
        <text x="250" y="172" class="value">Senior Security Engineer</text>
        <text x="50" y="196" class="key">TimeZone:</text>
        <text x="250" y="196" class="value">Pacific Standard Time</text>
        <text x="50" y="220" class="key">Certs:</text>
        <text x="250" y="220" class="value">CCSP | CISSP (ISC2 #521659)</text>
        <text x="50" y="244" class="key">Status:</text>
        <text x="250" y="244" class="value">Open to opportunities</text>
        <text x="50" y="268" class="comment">────────────────────────────────────────</text>
        <text x="50" y="292" class="key">Interests:</text>
        <text x="50" y="316" class="value">  • AI/LLM Security &amp;</text>
        <text x="50" y="340" class="value">    Safety Engineering</text>
        <text x="50" y="364" class="value">  • Security Automation &amp;</text>
        <text x="50" y="388" class="value">    DevSecOps</text>
        <text x="50" y="412" class="value">  • Cloud-Native Security</text>
        <text x="50" y="436" class="value">    Architecture</text>
        <text x="50" y="460" class="value">  • DevSecOps &amp; Security</text>
        <text x="50" y="484" class="value">    Architecture</text>
        <text x="50" y="508" class="value">  • Cloud Security</text>
        <text x="50" y="532" class="value">    (AWS, Azure)</text>
        <text x="50" y="556" class="value">  • Threat Modeling &amp;</text>
        <text x="50" y="580" class="value">    Risk Assessment</text>
        <text x="50" y="604" class="value">  • Incident Response &amp;</text>
        <text x="50" y="628" class="value">    Investigation</text>
        <text x="480" y="316" class="value">  • Container Security &amp;</text>
        <text x="480" y="340" class="value">    Orchestration</text>
        <text x="480" y="364" class="value">  • Vulnerability Management</text>
        <text x="480" y="388" class="value">  • Application Security</text>
        <text x="480" y="412" class="value">  • Compliance &amp; Standards</text>
        <text x="480" y="436" class="value">    Development</text>
        <text x="480" y="460" class="value">  • IAM &amp; Identity Management</text>
        <text x="480" y="484" class="value">  • SIEM &amp; Log Analysis</text>
        <text x="480" y="508" class="value">  • Security Automation</text>
        <text x="480" y="532" class="value">    &amp; CI/CD</text>
        <text x="480" y="556" class="value">  • Containers &amp; Kubernetes</text>
        <text x="480" y="580" class="value">  • Infrastructure as Code</text>
    </g>

    <!-- Language Chart -->
    <g>
        <text x="50" y="692" class="comment">╭──────────────────────────────────────────────────────────────────────────────────╮</text>
    <text x="50" y="712" class="comment">│</text>
    <text x="60" y="712" class="key">Language Distribution</text>
    <text x="830" y="712" class="comment">│</text>
    <text x="50" y="727" class="comment">├──────────────────────────────────────────────────────────────────────────────────┤</text>
    <text x="50" y="761" class="comment">│</text>
    <rect x="70" y="747" width="204.49522166026603" height="20" fill="#268bd2" rx="3"/>
    <text x="80" y="761" class="header" style="font-size: 12px; fill: #002b36">HCL</text>
    <text x="480" y="761" class="value" style="font-size: 12px">51.1%</text>
    <text x="830" y="761" class="comment">│</text>
    <text x="50" y="791" class="comment">│</text>
    <rect x="70" y="777" width="167.86783200890568" height="20" fill="#859900" rx="3"/>
    <text x="80" y="791" class="header" style="font-size: 12px; fill: #002b36">Shell</text>
    <text x="480" y="791" class="value" style="font-size: 12px">42.0%</text>
    <text x="830" y="791" class="comment">│</text>
    <text x="50" y="821" class="comment">│</text>
    <rect x="70" y="807" width="27.636946330828284" height="20" fill="#b58900" rx="3"/>
    <text x="80" y="821" class="header" style="font-size: 12px; fill: #002b36">Python</text>
    <text x="480" y="821" class="value" style="font-size: 12px">6.9%</text>
    <text x="830" y="821" class="comment">│</text>
    <text x="50" y="852" class="comment">╰──────────────────────────────────────────────────────────────────────────────────╯</text>
    </g>

    <!-- Project Highlights -->
    <g>
        <text x="50" y="902" class="comment">╭──────────────────────────────────────────────────────────────────────────────────╮</text>
    <text x="50" y="922" class="comment">│</text>
    <text x="60" y="922" class="key">Project Highlights</text>
    <text x="830" y="922" class="comment">│</text>
    <text x="50" y="937" class="comment">├──────────────────────────────────────────────────────────────────────────────────┤</text>
    <text x="50" y="957" class="comment">│</text>
    <text x="60" y="957" class="value" style="font-weight: 600">gateway_eks <tspan class="comment"></tspan></text>
    <text x="830" y="957" class="comment">│</text>
    <text x="50" y="977" class="comment">│</text>
    <text x="60" y="977" class="comment" style="font-size: 13px">[PoC] EKS deployment of AI-Governance stack</text>
    <text x="830" y="977" class="comment">│</text>
    <text x="50" y="995" class="comment">│</text>
    <text x="60" y="995" class="key" style="font-size: 11px">HCL</text>
    <text x="830" y="995" class="comment">│</text>
    <text x="50" y="1012" class="comment">├──────────────────────────────────────────────────────────────────────────────────┤</text>
    <text x="50" y="1022" class="comment">│</text>
    <text x="60" y="1022" class="value" style="font-weight: 600">kholcomb <tspan class="comment"></tspan></text>
    <text x="830" y="1022" class="comment">│</text>
    <text x="50" y="1042" class="comment">│</text>
    <text x="60" y="1042" class="comment" style="font-size: 13px">My personal repository CV</text>
    <text x="830" y="1042" class="comment">│</text>
    <text x="50" y="1060" class="comment">│</text>
    <text x="60" y="1060" class="key" style="font-size: 11px">Python</text>
    <text x="830" y="1060" class="comment">│</text>
    <text x="50" y="1077" class="comment">├──────────────────────────────────────────────────────────────────────────────────┤</text>
    <text x="50" y="1087" class="comment">│</text>
    <text x="60" y="1087" class="value" style="font-weight: 600">Kyros <tspan class="comment"></tspan></text>
    <text x="830" y="1087" class="comment">│</text>
    <text x="50" y="1107" class="comment">│</text>
    <text x="60" y="1107" class="comment" style="font-size: 13px">MCP Server Detection</text>
    <text x="830" y="1107" class="comment">│</text>
    <text x="50" y="1125" class="comment">│</text>
    <text x="60" y="1125" class="key" style="font-size: 11px">N/A</text>
    <text x="830" y="1125" class="comment">│</text>
    <text x="50" y="1152" class="comment">╰──────────────────────────────────────────────────────────────────────────────────╯</text>
    </g>

    <!-- Footer -->
    <text x="50" y="1202" class="footer">Last updated: January 02, 2026 at 04:52 AM UTC</text>
</svg>