<svg width="900" height="1322" xmlns="http://www.w3.org/2000/svg">
    <style>
        text {
            font-family: 'Consolas', 'Monaco', 'Courier New', monospace;
            font-size: 16px;
        }
        .ascii {
            fill: #839496;
            font-size: 14px;
            white-space: pre;
        }
        .key {
            fill: #cb4b16;
            font-weight: 600;
        }
        .value {
            fill: #268bd2;
        }
        .comment {
            fill: #586e75;
        }
        .header {
            fill: #839496;
            font-weight: 700;
            font-size: 18px;
        }
        .footer {
            fill: #586e75;
            font-size: 12px;
        }
    </style>

    <!-- Background -->
    <rect width="900" height="1322" fill="#002b36" rx="10"/>
    <rect width="880" height="1302" x="10" y="10" fill="#002b36" stroke="#586e75" stroke-width="2" rx="8"/>

    <!-- Title -->
    <text x="50" y="60" class="header">kholcomb's GitHub Profile</text>

    <!-- Info Section -->
    <g>
        <text x="50" y="100" class="comment"></text>
        <text x="50" y="124" class="comment">──────────────────────────────────────────────────</text>
        <text x="50" y="148" class="key">Name:</text>
        <text x="250" y="148" class="value">kholcomb</text>
        <text x="50" y="172" class="key">Role:</text>
        <text x="250" y="172" class="value">Senior Security Engineer</text>
        <text x="50" y="196" class="key">TimeZone:</text>
        <text x="250" y="196" class="value">Pacific Standard Time</text>
        <text x="50" y="220" class="key">Certs:</text>
        <text x="250" y="220" class="value">CCSP | CISSP (ISC2 #521659)</text>
        <text x="50" y="244" class="key">Status:</text>
        <text x="250" y="244" class="value">Open to opportunities</text>
        <text x="50" y="268" class="comment">────────────────────────────────────────</text>
        <text x="50" y="292" class="key">Interests:</text>
        <text x="50" y="316" class="value">  • AI/LLM Security &amp;</text>
        <text x="50" y="340" class="value">    Safety Engineering</text>
        <text x="50" y="364" class="value">  • Security Automation &amp;</text>
        <text x="50" y="388" class="value">    DevSecOps</text>
        <text x="50" y="412" class="value">  • Cloud-Native Security</text>
        <text x="50" y="436" class="value">    Architecture</text>
        <text x="50" y="460" class="value">  • DevSecOps &amp; Security</text>
        <text x="50" y="484" class="value">    Architecture</text>
        <text x="50" y="508" class="value">  • Cloud Security</text>
        <text x="50" y="532" class="value">    (AWS, Azure)</text>
        <text x="50" y="556" class="value">  • Threat Modeling &amp;</text>
        <text x="50" y="580" class="value">    Risk Assessment</text>
        <text x="50" y="604" class="value">  • Incident Response &amp;</text>
        <text x="50" y="628" class="value">    Investigation</text>
        <text x="480" y="316" class="value">  • Container Security &amp;</text>
        <text x="480" y="340" class="value">    Orchestration</text>
        <text x="480" y="364" class="value">  • Vulnerability Management</text>
        <text x="480" y="388" class="value">  • Application Security</text>
        <text x="480" y="412" class="value">  • Compliance &amp; Standards</text>
        <text x="480" y="436" class="value">    Development</text>
        <text x="480" y="460" class="value">  • IAM &amp; Identity Management</text>
        <text x="480" y="484" class="value">  • SIEM &amp; Log Analysis</text>
        <text x="480" y="508" class="value">  • Security Automation</text>
        <text x="480" y="532" class="value">    &amp; CI/CD</text>
        <text x="480" y="556" class="value">  • Containers &amp; Kubernetes</text>
        <text x="480" y="580" class="value">  • Infrastructure as Code</text>
    </g>

    <!-- Language Chart -->
    <g>
        <text x="50" y="692" class="comment">╭──────────────────────────────────────────────────────────────────────────────────╮</text>
    <text x="50" y="712" class="comment">│</text>
    <text x="60" y="712" class="key">Language Distribution</text>
    <text x="830" y="712" class="comment">│</text>
    <text x="50" y="727" class="comment">├──────────────────────────────────────────────────────────────────────────────────┤</text>
    <text x="50" y="761" class="comment">│</text>
    <rect x="70" y="747" width="150.66988020131848" height="20" fill="#268bd2" rx="3"/>
    <text x="80" y="761" class="header" style="font-size: 12px; fill: #002b36">Python</text>
    <text x="480" y="761" class="value" style="font-size: 12px">37.7%</text>
    <text x="830" y="761" class="comment">│</text>
    <text x="50" y="791" class="comment">│</text>
    <rect x="70" y="777" width="101.15129930604274" height="20" fill="#859900" rx="3"/>
    <text x="80" y="791" class="header" style="font-size: 12px; fill: #002b36">Shell</text>
    <text x="480" y="791" class="value" style="font-size: 12px">25.3%</text>
    <text x="830" y="791" class="comment">│</text>
    <text x="50" y="821" class="comment">│</text>
    <rect x="70" y="807" width="72.64234190411706" height="20" fill="#b58900" rx="3"/>
    <text x="80" y="821" class="header" style="font-size: 12px; fill: #002b36">C++</text>
    <text x="480" y="821" class="value" style="font-size: 12px">18.2%</text>
    <text x="830" y="821" class="comment">│</text>
    <text x="50" y="851" class="comment">│</text>
    <rect x="70" y="837" width="32.442196708408396" height="20" fill="#dc322f" rx="3"/>
    <text x="80" y="851" class="header" style="font-size: 12px; fill: #002b36">HCL</text>
    <text x="480" y="851" class="value" style="font-size: 12px">8.1%</text>
    <text x="830" y="851" class="comment">│</text>
    <text x="50" y="881" class="comment">│</text>
    <rect x="70" y="867" width="23.83922875168356" height="20" fill="#6c71c4" rx="3"/>
    <text x="80" y="881" class="header" style="font-size: 12px; fill: #002b36">JavaScript</text>
    <text x="480" y="881" class="value" style="font-size: 12px">6.0%</text>
    <text x="830" y="881" class="comment">│</text>
    <text x="50" y="912" class="comment">╰──────────────────────────────────────────────────────────────────────────────────╯</text>
    </g>

    <!-- Project Highlights -->
    <g>
        <text x="50" y="962" class="comment">╭──────────────────────────────────────────────────────────────────────────────────╮</text>
    <text x="50" y="982" class="comment">│</text>
    <text x="60" y="982" class="key">Project Highlights</text>
    <text x="830" y="982" class="comment">│</text>
    <text x="50" y="997" class="comment">├──────────────────────────────────────────────────────────────────────────────────┤</text>
    <text x="50" y="1017" class="comment">│</text>
    <text x="60" y="1017" class="value" style="font-weight: 600">DevSecOps_Arena <tspan class="comment"></tspan></text>
    <text x="830" y="1017" class="comment">│</text>
    <text x="50" y="1037" class="comment">│</text>
    <text x="60" y="1037" class="comment" style="font-size: 13px">Gamified Security Arena for building DevSecOps skillsets</text>
    <text x="830" y="1037" class="comment">│</text>
    <text x="50" y="1055" class="comment">│</text>
    <text x="60" y="1055" class="key" style="font-size: 11px">Python</text>
    <text x="830" y="1055" class="comment">│</text>
    <text x="50" y="1072" class="comment">├──────────────────────────────────────────────────────────────────────────────────┤</text>
    <text x="50" y="1082" class="comment">│</text>
    <text x="60" y="1082" class="value" style="font-weight: 600">gateway_eks <tspan class="comment"></tspan></text>
    <text x="830" y="1082" class="comment">│</text>
    <text x="50" y="1102" class="comment">│</text>
    <text x="60" y="1102" class="comment" style="font-size: 13px">[PoC] EKS deployment of AI-Governance stack</text>
    <text x="830" y="1102" class="comment">│</text>
    <text x="50" y="1120" class="comment">│</text>
    <text x="60" y="1120" class="key" style="font-size: 11px">HCL</text>
    <text x="830" y="1120" class="comment">│</text>
    <text x="50" y="1137" class="comment">├──────────────────────────────────────────────────────────────────────────────────┤</text>
    <text x="50" y="1147" class="comment">│</text>
    <text x="60" y="1147" class="value" style="font-weight: 600">k8s_gaming <tspan class="comment"></tspan></text>
    <text x="830" y="1147" class="comment">│</text>
    <text x="50" y="1167" class="comment">│</text>
    <text x="60" y="1167" class="comment" style="font-size: 13px">Interactive Kubernetes learning game with real-time cluster visualizat...</text>
    <text x="830" y="1167" class="comment">│</text>
    <text x="50" y="1185" class="comment">│</text>
    <text x="60" y="1185" class="key" style="font-size: 11px">Shell</text>
    <text x="830" y="1185" class="comment">│</text>
    <text x="50" y="1212" class="comment">╰──────────────────────────────────────────────────────────────────────────────────╯</text>
    </g>

    <!-- Footer -->
    <text x="50" y="1262" class="footer">Last updated: January 05, 2026 at 01:04 AM UTC</text>
</svg>